<svg width="516" height="384" xmlns="http://www.w3.org/2000/svg" data-name="圖層 3">
 <defs>
  <linearGradient y2="0.01163" x2="0.81387" y1="0.63906" x1="0.39779" data-name="未命名漸層 231" id="_未命名漸層_231">
   <stop stop-color="#74aac9" offset="0"/>
   <stop stop-color="#7a95cf" offset="1"/>
  </linearGradient>
  <linearGradient y2="-0.09923" x2="0.88884" y1="1.09923" x1="0.11116" data-name="未命名漸層 194" id="_未命名漸層_194">
   <stop stop-color="#63e2b7" offset="0"/>
   <stop stop-color="#64ddb8" offset="0.12"/>
   <stop stop-color="#68cebd" offset="0.25"/>
   <stop stop-color="#70b7c4" offset="0.39"/>
   <stop stop-color="#7a96cf" offset="0.54"/>
   <stop stop-color="#876bdc" offset="0.69"/>
   <stop stop-color="#9639ec" offset="0.85"/>
   <stop stop-color="#a800ff" offset="1"/>
  </linearGradient>
 </defs>
 <g>
  <title>Layer 1</title>
  <path id="svg_1" stroke-width="0px" fill="url(#_未命名漸層_231)" d="m451.01001,333.21l12.74,47.14c0.66,2.45 -1.7,4.52 -3.63,3.19l-72.78,-50.33l63.67,0z" class="cls-1"/>
  <path id="svg_2" fill="url(#_未命名漸層_194)" stroke-width="0px" d="m474.72001,0l-433.52,0c-22.75,0 -41.2,18.45 -41.2,41.2l0,252.37c0,22.75 18.45,41.2 41.2,41.2l433.52,0c22.75,0 41.2,-18.45 41.2,-41.2l0,-252.37c0,-22.75 -18.45,-41.2 -41.2,-41.2zm-305.69,170.46l-10.41,10.44l10.41,10.41l0,30.04l-28.69,28.71l-109.65,0l0,-36.54l92.35,0l7.18,-7.18l-7.2,-7.2l-92.32,0l0,-36.51l92.32,0l7.2,-7.2l-7.18,-7.18l-92.35,0l0,-36.54l109.65,0l28.69,28.69l0,30.04l0,0.02zm158.1,79.61l-36.54,0l0,-33.32l17.61,-17.59l-73.38,0l-9.5,9.46l0,41.45l-36.54,0l0,-58.76l28.71,-28.69l73.09,0l0,-4.9l-9.46,-9.48l-92.35,0l0,-36.51l109.65,0l28.69,28.67l0,109.67l0.02,0zm158.1,0l-36.54,0l0,-84.19l17.61,-17.61l-31.97,0l0,101.81l-36.54,0l0,-101.81l-4.87,0l-9.5,9.46l0,92.35l-36.54,0l0,-109.65l28.71,-28.69l80.94,0l28.69,28.69l0,109.65l0.01,-0.01z" class="cls-2"/>
 </g>
</svg>